<svg width="1512" height="913" viewBox="0 0 1512 913" fill="none" xmlns="http://www.w3.org/2000/svg">
<rect x="304" y="240" width="128" height="360" fill="#1F2937"/>
<rect x="1024" y="240" width="120" height="360" fill="#1F2937"/>
<path d="M432 560C650.5 560 804.5 680.5 1024.5 680.5" stroke="#2563EB" stroke-width="64"/>
<path d="M432 596C650.316 596 804.186 776 1024 776" stroke="#EF4444" stroke-width="8"/>
<path d="M1120 681L1021 738.158L1021 623.842L1120 681Z" fill="#2563EB"/>
<path d="M1040 776L1022 786.392L1022 765.608L1040 776Z" fill="#EF4444"/>
<path fill-rule="evenodd" clip-rule="evenodd" d="M434.626 191.012L497 155L434.665 119.011C547.845 119.674 644.467 150.958 735.7 180.497L738.026 181.25C831.945 211.656 920.455 240 1024 240V312C908.124 312 809.787 280.163 717.236 250.199L715.849 249.75C622.98 219.684 535.849 191.668 434.626 191.012Z" fill="#2563EB"/>
<path d="M432 348C666.5 348 788 420 1024 420" stroke="#14B8A6" stroke-width="216"/>
<path d="M432 492C642 492 805.306 564 1024 564" stroke="#115E59" stroke-width="72"/>
<path d="M381 565.724L354.818 565.724L354.818 548.082L359.382 548.082L359.382 560.189L365.621 560.189L365.621 548.99L370.185 548.99L370.185 560.189L376.436 560.189L376.436 548.031L381 548.031L381 565.724ZM361.364 539.053L368.229 535.447L361.364 531.753L361.364 526.166L371.182 531.855L381 526.013L381 531.574L374.212 535.447L381 539.257L381 544.882L371.182 539.053L361.364 544.678L361.364 539.053ZM381 522.752L361.364 522.752L361.364 517.306L381 517.306L381 522.752ZM358.832 520.016C358.832 520.826 358.564 521.52 358.027 522.1C357.482 522.671 356.83 522.956 356.071 522.956C355.321 522.956 354.678 522.671 354.141 522.1C353.595 521.52 353.322 520.826 353.322 520.016C353.322 519.206 353.595 518.516 354.141 517.945C354.678 517.365 355.321 517.076 356.071 517.076C356.83 517.076 357.482 517.365 358.027 517.945C358.564 518.516 358.832 519.206 358.832 520.016ZM366.963 496.425L367.27 501.411C366.844 501.496 366.46 501.679 366.119 501.961C365.77 502.242 365.493 502.613 365.288 503.073C365.075 503.525 364.969 504.066 364.969 504.697C364.969 505.54 365.148 506.252 365.506 506.831C365.855 507.411 366.324 507.701 366.912 507.701C367.381 507.701 367.777 507.513 368.101 507.138C368.425 506.763 368.685 506.12 368.881 505.208L369.597 501.654C369.989 499.745 370.619 498.322 371.489 497.384C372.358 496.447 373.5 495.978 374.915 495.978C376.202 495.978 377.331 496.357 378.303 497.116C379.274 497.866 380.033 498.897 380.578 500.209C381.115 501.513 381.384 503.018 381.384 504.722C381.384 507.322 380.842 509.393 379.76 510.935C378.669 512.469 377.186 513.368 375.311 513.633L375.03 508.276C375.822 508.114 376.428 507.722 376.845 507.1C377.254 506.478 377.459 505.681 377.459 504.709C377.459 503.755 377.276 502.988 376.909 502.408C376.534 501.82 376.053 501.522 375.464 501.513C374.97 501.522 374.565 501.731 374.25 502.14C373.926 502.549 373.679 503.179 373.509 504.032L372.831 507.432C372.447 509.35 371.783 510.777 370.837 511.715C369.891 512.644 368.685 513.108 367.219 513.108C365.957 513.108 364.871 512.768 363.959 512.086C363.047 511.395 362.344 510.428 361.849 509.184C361.355 507.931 361.108 506.465 361.108 504.786C361.108 502.306 361.632 500.354 362.68 498.931C363.729 497.499 365.156 496.664 366.963 496.425ZM361.364 481.924L365.455 481.924L365.455 493.749L361.364 493.749L361.364 481.924ZM356.659 491.064L356.659 485.618L374.966 485.618C375.469 485.618 375.861 485.542 376.142 485.388C376.415 485.235 376.607 485.022 376.717 484.749C376.828 484.468 376.884 484.144 376.884 483.778C376.884 483.522 376.862 483.266 376.82 483.01C376.768 482.755 376.73 482.559 376.705 482.422L380.757 481.566C380.842 481.839 380.94 482.222 381.051 482.716C381.17 483.211 381.243 483.812 381.268 484.519C381.32 485.831 381.145 486.982 380.744 487.971C380.344 488.951 379.722 489.714 378.878 490.259C378.034 490.805 376.969 491.073 375.682 491.064L356.659 491.064ZM381 478.196L361.364 478.196L361.364 472.75L381 472.75L381 478.196ZM358.832 475.46C358.832 476.27 358.564 476.965 358.027 477.544C357.482 478.115 356.83 478.401 356.071 478.401C355.321 478.401 354.678 478.115 354.141 477.544C353.595 476.965 353.322 476.27 353.322 475.46C353.322 474.651 353.595 473.96 354.141 473.389C354.678 472.81 355.321 472.52 356.071 472.52C356.83 472.52 357.482 472.81 358.027 473.389C358.564 473.96 358.832 474.651 358.832 475.46ZM369.648 462.762L381 462.762L381 468.208L361.364 468.208L361.364 463.017L364.828 463.017L364.828 462.787C363.686 462.353 362.783 461.624 362.118 460.601C361.445 459.578 361.108 458.338 361.108 456.881C361.108 455.517 361.406 454.328 362.003 453.314C362.599 452.3 363.452 451.512 364.56 450.949C365.659 450.387 366.972 450.105 368.497 450.105L381 450.105L381 455.551L369.469 455.551C368.267 455.543 367.33 455.85 366.656 456.472C365.974 457.094 365.634 457.951 365.634 459.041C365.634 459.774 365.791 460.422 366.107 460.985C366.422 461.539 366.882 461.973 367.487 462.289C368.084 462.595 368.804 462.753 369.648 462.762ZM388.773 436.787C388.773 438.551 388.53 440.064 388.044 441.325C387.567 442.578 386.915 443.575 386.088 444.316C385.261 445.058 384.332 445.539 383.301 445.761L382.624 440.724C383.016 440.571 383.382 440.328 383.723 439.995C384.064 439.663 384.337 439.224 384.541 438.679C384.754 438.125 384.861 437.451 384.861 436.659C384.861 435.474 384.571 434.498 383.991 433.731C383.42 432.956 382.462 432.568 381.115 432.568L377.523 432.568L377.523 432.798C378.068 433.037 378.584 433.394 379.07 433.872C379.555 434.349 379.952 434.963 380.259 435.713C380.565 436.463 380.719 437.358 380.719 438.397C380.719 439.872 380.378 441.214 379.696 442.424C379.006 443.626 377.953 444.585 376.538 445.301C375.115 446.008 373.317 446.362 371.143 446.362C368.919 446.362 367.061 446 365.57 445.275C364.078 444.551 362.962 443.588 362.22 442.386C361.479 441.176 361.108 439.85 361.108 438.41C361.108 437.311 361.295 436.39 361.67 435.649C362.037 434.907 362.497 434.311 363.051 433.859C363.597 433.399 364.134 433.045 364.662 432.798L364.662 432.593L361.364 432.593L361.364 427.186L381.192 427.186C382.862 427.186 384.26 427.595 385.385 428.413C386.51 429.231 387.354 430.365 387.916 431.814C388.487 433.254 388.773 434.912 388.773 436.787ZM376.628 436.671C376.628 435.794 376.411 435.052 375.976 434.447C375.533 433.833 374.902 433.365 374.084 433.041C373.257 432.708 372.268 432.542 371.118 432.542C369.967 432.542 368.97 432.704 368.126 433.028C367.274 433.352 366.614 433.821 366.145 434.434C365.676 435.048 365.442 435.794 365.442 436.671C365.442 437.566 365.685 438.321 366.17 438.934C366.648 439.548 367.312 440.012 368.165 440.328C369.017 440.643 370.001 440.801 371.118 440.801C372.251 440.801 373.232 440.643 374.058 440.328C374.876 440.004 375.511 439.539 375.963 438.934C376.406 438.321 376.628 437.566 376.628 436.671ZM381 414.058L354.818 414.058L354.818 403.575C354.818 401.648 355.104 400.042 355.675 398.755C356.246 397.468 357.038 396.501 358.053 395.853C359.058 395.205 360.217 394.881 361.53 394.881C362.553 394.881 363.452 395.086 364.227 395.495C364.994 395.904 365.625 396.467 366.119 397.183C366.605 397.89 366.95 398.7 367.155 399.612L367.411 399.612C367.453 398.614 367.734 397.681 368.254 396.812C368.774 395.934 369.503 395.222 370.44 394.677C371.369 394.131 372.477 393.859 373.764 393.859C375.153 393.859 376.393 394.204 377.484 394.894C378.567 395.576 379.423 396.586 380.054 397.924C380.685 399.262 381 400.911 381 402.871L381 414.058ZM376.474 408.522L376.474 404.009C376.474 402.467 376.18 401.342 375.592 400.634C374.996 399.927 374.203 399.573 373.214 399.573C372.49 399.573 371.851 399.748 371.297 400.097C370.743 400.447 370.308 400.945 369.993 401.593C369.678 402.232 369.52 402.995 369.52 403.881L369.52 408.522L376.474 408.522ZM365.774 408.522L365.774 404.418C365.774 403.66 365.642 402.987 365.378 402.398C365.105 401.802 364.722 401.333 364.227 400.992C363.733 400.643 363.141 400.468 362.45 400.468C361.504 400.468 360.741 400.805 360.162 401.478C359.582 402.143 359.293 403.089 359.293 404.316L359.293 408.522L365.774 408.522ZM372.639 377.587L361.364 377.587L361.364 372.141L381 372.141L381 377.369L377.433 377.369L377.433 377.574C378.584 378.017 379.509 378.754 380.207 379.786C380.906 380.808 381.256 382.057 381.256 383.531C381.256 384.844 380.957 385.999 380.361 386.996C379.764 387.993 378.916 388.773 377.817 389.335C376.717 389.889 375.401 390.171 373.866 390.179L361.364 390.179L361.364 384.733L372.895 384.733C374.054 384.724 374.97 384.413 375.643 383.8C376.317 383.186 376.653 382.364 376.653 381.332C376.653 380.676 376.504 380.063 376.206 379.492C375.899 378.921 375.447 378.46 374.851 378.111C374.254 377.753 373.517 377.578 372.639 377.587ZM381 367.605L361.364 367.605L361.364 362.158L381 362.158L381 367.605ZM358.832 364.869C358.832 365.678 358.564 366.373 358.027 366.953C357.482 367.524 356.83 367.809 356.071 367.809C355.321 367.809 354.678 367.524 354.141 366.953C353.595 366.373 353.322 365.678 353.322 364.869C353.322 364.059 353.595 363.369 354.141 362.798C354.678 362.218 355.321 361.928 356.071 361.928C356.83 361.928 357.482 362.218 358.027 362.798C358.564 363.369 358.832 364.059 358.832 364.869ZM354.818 352.17L381 352.17L381 357.616L354.818 357.616L354.818 352.17ZM381.32 340.392C381.32 341.883 380.936 343.234 380.169 344.444C379.393 345.646 378.256 346.6 376.756 347.308C375.247 348.007 373.398 348.356 371.207 348.356C368.957 348.356 367.087 347.994 365.595 347.269C364.095 346.545 362.974 345.582 362.233 344.38C361.483 343.17 361.108 341.845 361.108 340.404C361.108 339.305 361.295 338.389 361.67 337.656C362.037 336.914 362.497 336.318 363.051 335.866C363.597 335.406 364.134 335.056 364.662 334.818L364.662 334.651L354.818 334.651L354.818 329.218L381 329.218L381 334.588L377.855 334.588L377.855 334.818C378.401 335.073 378.942 335.436 379.479 335.904C380.007 336.365 380.446 336.965 380.795 337.707C381.145 338.44 381.32 339.335 381.32 340.392ZM376.986 338.666C376.986 337.788 376.747 337.046 376.27 336.441C375.784 335.828 375.107 335.359 374.237 335.035C373.368 334.703 372.349 334.536 371.182 334.536C370.014 334.536 369 334.698 368.139 335.022C367.278 335.346 366.614 335.815 366.145 336.428C365.676 337.042 365.442 337.788 365.442 338.666C365.442 339.561 365.685 340.315 366.17 340.928C366.656 341.542 367.33 342.007 368.19 342.322C369.051 342.637 370.048 342.795 371.182 342.795C372.324 342.795 373.334 342.637 374.212 342.322C375.081 341.998 375.763 341.534 376.257 340.928C376.743 340.315 376.986 339.561 376.986 338.666ZM381 324.561L361.364 324.561L361.364 319.115L381 319.115L381 324.561ZM358.832 321.825C358.832 322.634 358.564 323.329 358.027 323.909C357.482 324.48 356.83 324.765 356.071 324.765C355.321 324.765 354.678 324.48 354.141 323.909C353.595 323.329 353.322 322.634 353.322 321.825C353.322 321.015 353.595 320.325 354.141 319.754C354.678 319.174 355.321 318.884 356.071 318.884C356.83 318.884 357.482 319.174 358.027 319.754C358.564 320.325 358.832 321.015 358.832 321.825ZM369.648 309.126L381 309.126L381 314.572L361.364 314.572L361.364 309.382L364.828 309.382L364.828 309.152C363.686 308.717 362.783 307.988 362.118 306.965C361.445 305.943 361.108 304.703 361.108 303.245C361.108 301.882 361.406 300.693 362.003 299.679C362.599 298.664 363.452 297.876 364.56 297.313C365.659 296.751 366.972 296.47 368.497 296.47L381 296.47L381 301.916L369.469 301.916C368.267 301.907 367.33 302.214 366.656 302.836C365.974 303.458 365.634 304.315 365.634 305.406C365.634 306.139 365.791 306.787 366.107 307.349C366.422 307.903 366.882 308.338 367.487 308.653C368.084 308.96 368.804 309.117 369.648 309.126ZM388.773 283.151C388.773 284.915 388.53 286.428 388.044 287.689C387.567 288.942 386.915 289.939 386.088 290.681C385.261 291.422 384.332 291.904 383.301 292.125L382.624 287.088C383.016 286.935 383.382 286.692 383.723 286.36C384.064 286.027 384.337 285.588 384.541 285.043C384.754 284.489 384.861 283.816 384.861 283.023C384.861 281.838 384.571 280.863 383.991 280.095C383.42 279.32 382.462 278.932 381.115 278.932L377.523 278.932L377.523 279.162C378.068 279.401 378.584 279.759 379.07 280.236C379.555 280.713 379.952 281.327 380.259 282.077C380.565 282.827 380.719 283.722 380.719 284.762C380.719 286.236 380.378 287.578 379.696 288.789C379.006 289.99 377.953 290.949 376.538 291.665C375.115 292.372 373.317 292.726 371.143 292.726C368.919 292.726 367.061 292.364 365.57 291.64C364.078 290.915 362.962 289.952 362.22 288.75C361.479 287.54 361.108 286.215 361.108 284.774C361.108 283.675 361.295 282.755 361.67 282.013C362.037 281.272 362.497 280.675 363.051 280.223C363.597 279.763 364.134 279.409 364.662 279.162L364.662 278.958L361.364 278.958L361.364 273.55L381.192 273.55C382.862 273.55 384.26 273.959 385.385 274.777C386.51 275.595 387.354 276.729 387.916 278.178C388.487 279.618 388.773 281.276 388.773 283.151ZM376.628 283.036C376.628 282.158 376.41 281.417 375.976 280.811C375.533 280.198 374.902 279.729 374.084 279.405C373.257 279.073 372.268 278.907 371.118 278.907C369.967 278.907 368.97 279.069 368.126 279.392C367.274 279.716 366.614 280.185 366.145 280.799C365.676 281.412 365.442 282.158 365.442 283.036C365.442 283.931 365.685 284.685 366.17 285.299C366.648 285.912 367.312 286.377 368.165 286.692C369.017 287.007 370.001 287.165 371.118 287.165C372.251 287.165 373.232 287.007 374.058 286.692C374.876 286.368 375.511 285.904 375.963 285.299C376.406 284.685 376.628 283.931 376.628 283.036Z" fill="white"/>
<path d="M1099 565.724L1072.82 565.724L1072.82 555.395C1072.82 553.418 1073.17 551.73 1073.88 550.332C1074.58 548.926 1075.57 547.857 1076.86 547.124C1078.14 546.382 1079.64 546.011 1081.37 546.011C1083.11 546.011 1084.61 546.386 1085.86 547.136C1087.1 547.886 1088.06 548.973 1088.72 550.396C1089.39 551.811 1089.72 553.524 1089.72 555.536L1089.72 562.452L1085.27 562.452L1085.27 556.43C1085.27 555.374 1085.12 554.496 1084.84 553.797C1084.55 553.098 1084.11 552.578 1083.53 552.237C1082.95 551.888 1082.23 551.713 1081.37 551.713C1080.5 551.713 1079.77 551.888 1079.17 552.237C1078.58 552.578 1078.12 553.102 1077.82 553.81C1077.5 554.509 1077.34 555.391 1077.34 556.456L1077.34 560.189L1099 560.189L1099 565.724ZM1087.09 551.585L1099 545.078L1099 551.189L1087.09 557.555L1087.09 551.585ZM1099.38 533.389C1099.38 535.409 1098.97 537.148 1098.16 538.605C1097.33 540.054 1096.16 541.17 1094.65 541.955C1093.14 542.739 1091.34 543.131 1089.27 543.131C1087.25 543.131 1085.48 542.739 1083.95 541.955C1082.43 541.17 1081.24 540.067 1080.39 538.644C1079.53 537.212 1079.11 535.533 1079.11 533.607C1079.11 532.311 1079.32 531.105 1079.73 529.989C1080.14 528.864 1080.76 527.884 1081.59 527.048C1082.41 526.205 1083.45 525.548 1084.71 525.08C1085.95 524.611 1087.41 524.376 1089.08 524.376L1090.58 524.376L1090.58 540.957L1087.2 540.957L1087.2 529.503C1086.42 529.503 1085.72 529.673 1085.12 530.014C1084.51 530.355 1084.04 530.828 1083.7 531.433C1083.35 532.03 1083.17 532.724 1083.17 533.517C1083.17 534.344 1083.37 535.077 1083.75 535.716C1084.12 536.347 1084.63 536.841 1085.27 537.199C1085.9 537.557 1086.6 537.74 1087.38 537.749L1090.59 537.749C1091.56 537.749 1092.4 537.57 1093.11 537.212C1093.81 536.845 1094.36 536.33 1094.74 535.665C1095.13 535 1095.32 534.212 1095.32 533.3C1095.32 532.695 1095.23 532.141 1095.06 531.638C1094.89 531.135 1094.64 530.705 1094.3 530.347C1093.95 529.989 1093.54 529.716 1093.04 529.528L1093.37 524.492C1094.59 524.747 1095.64 525.271 1096.55 526.064C1097.44 526.848 1098.14 527.862 1098.64 529.107C1099.14 530.342 1099.38 531.77 1099.38 533.389ZM1079.36 510.198L1083.45 510.198L1083.45 522.023L1079.36 522.023L1079.36 510.198ZM1074.66 519.339L1074.66 513.892L1092.97 513.892C1093.47 513.892 1093.86 513.816 1094.14 513.662C1094.41 513.509 1094.61 513.296 1094.72 513.023C1094.83 512.742 1094.88 512.418 1094.88 512.052C1094.88 511.796 1094.86 511.54 1094.82 511.285C1094.77 511.029 1094.73 510.833 1094.7 510.696L1098.76 509.84C1098.84 510.113 1098.94 510.496 1099.05 510.99C1099.17 511.485 1099.24 512.086 1099.27 512.793C1099.32 514.106 1099.14 515.256 1098.74 516.245C1098.34 517.225 1097.72 517.988 1096.88 518.533C1096.03 519.079 1094.97 519.347 1093.68 519.339L1074.66 519.339ZM1099 506.47L1079.36 506.47L1079.36 501.19L1082.79 501.19L1082.79 500.986C1081.57 500.628 1080.65 500.027 1080.03 499.183C1079.4 498.34 1079.08 497.368 1079.08 496.269C1079.08 495.996 1079.1 495.702 1079.13 495.386C1079.17 495.071 1079.21 494.794 1079.27 494.556L1084.11 494.556C1084.03 494.811 1083.96 495.165 1083.9 495.617C1083.84 496.068 1083.81 496.482 1083.81 496.857C1083.81 497.658 1083.99 498.374 1084.34 499.004C1084.68 499.627 1085.15 500.121 1085.77 500.487C1086.38 500.845 1087.09 501.024 1087.89 501.024L1099 501.024L1099 506.47ZM1099.38 483.602C1099.38 485.588 1098.96 487.305 1098.12 488.754C1097.27 490.194 1096.08 491.306 1094.56 492.09C1093.04 492.874 1091.27 493.267 1089.26 493.267C1087.23 493.267 1085.46 492.874 1083.94 492.09C1082.41 491.306 1081.23 490.194 1080.39 488.754C1079.53 487.305 1079.11 485.588 1079.11 483.602C1079.11 481.616 1079.53 479.903 1080.39 478.463C1081.23 477.014 1082.41 475.897 1083.94 475.113C1085.46 474.329 1087.23 473.937 1089.26 473.937C1091.27 473.937 1093.04 474.329 1094.56 475.113C1096.08 475.897 1097.27 477.014 1098.12 478.463C1098.96 479.903 1099.38 481.616 1099.38 483.602ZM1095.16 483.576C1095.16 482.673 1094.91 481.918 1094.4 481.313C1093.88 480.708 1093.17 480.252 1092.28 479.945C1091.38 479.63 1090.36 479.472 1089.22 479.472C1088.08 479.472 1087.06 479.63 1086.16 479.945C1085.27 480.252 1084.56 480.708 1084.04 481.313C1083.52 481.918 1083.26 482.673 1083.26 483.576C1083.26 484.488 1083.52 485.255 1084.04 485.877C1084.56 486.491 1085.27 486.955 1086.16 487.271C1087.06 487.578 1088.08 487.731 1089.22 487.731C1090.36 487.731 1091.38 487.578 1092.28 487.271C1093.17 486.955 1093.88 486.491 1094.4 485.877C1094.91 485.255 1095.16 484.488 1095.16 483.576ZM1079.36 459.656L1083.45 459.656L1083.45 471.775L1079.36 471.775L1079.36 459.656ZM1099 469.001L1077.94 469.001C1076.52 469.001 1075.34 468.724 1074.4 468.17C1073.47 467.608 1072.76 466.841 1072.29 465.869C1071.83 464.898 1071.59 463.794 1071.59 462.558C1071.59 461.723 1071.65 460.96 1071.78 460.27C1071.91 459.571 1072.03 459.051 1072.13 458.71L1076.22 459.682C1076.15 459.895 1076.09 460.159 1076.03 460.474C1075.97 460.781 1075.94 461.096 1075.94 461.42C1075.94 462.221 1076.12 462.78 1076.5 463.095C1076.87 463.41 1077.38 463.568 1078.05 463.568L1099 463.568L1099 469.001ZM1099 456.149L1079.36 456.149L1079.36 450.703L1099 450.703L1099 456.149ZM1076.83 453.413C1076.83 454.223 1076.56 454.918 1076.03 455.497C1075.48 456.068 1074.83 456.354 1074.07 456.354C1073.32 456.354 1072.68 456.068 1072.14 455.497C1071.6 454.918 1071.32 454.223 1071.32 453.413C1071.32 452.604 1071.6 451.913 1072.14 451.342C1072.68 450.763 1073.32 450.473 1074.07 450.473C1074.83 450.473 1075.48 450.763 1076.03 451.342C1076.56 451.913 1076.83 452.604 1076.83 453.413ZM1079.36 435.716L1083.45 435.716L1083.45 447.541L1079.36 447.541L1079.36 435.716ZM1074.66 444.856L1074.66 439.41L1092.97 439.41C1093.47 439.41 1093.86 439.334 1094.14 439.18C1094.41 439.027 1094.61 438.814 1094.72 438.541C1094.83 438.26 1094.88 437.936 1094.88 437.57C1094.88 437.314 1094.86 437.058 1094.82 436.802C1094.77 436.547 1094.73 436.351 1094.7 436.214L1098.76 435.358C1098.84 435.631 1098.94 436.014 1099.05 436.508C1099.17 437.003 1099.24 437.604 1099.27 438.311C1099.32 439.624 1099.14 440.774 1098.74 441.763C1098.34 442.743 1097.72 443.506 1096.88 444.051C1096.03 444.597 1094.97 444.865 1093.68 444.856L1074.66 444.856ZM1099 423.374L1072.82 423.374L1072.82 412.891C1072.82 410.965 1073.1 409.358 1073.67 408.071C1074.25 406.784 1075.04 405.817 1076.05 405.169C1077.06 404.522 1078.22 404.198 1079.53 404.198C1080.55 404.198 1081.45 404.402 1082.23 404.811C1082.99 405.221 1083.62 405.783 1084.12 406.499C1084.61 407.206 1084.95 408.016 1085.15 408.928L1085.41 408.928C1085.45 407.931 1085.73 406.998 1086.25 406.128C1086.77 405.25 1087.5 404.539 1088.44 403.993C1089.37 403.448 1090.48 403.175 1091.76 403.175C1093.15 403.175 1094.39 403.52 1095.48 404.211C1096.57 404.892 1097.42 405.902 1098.05 407.24C1098.68 408.579 1099 410.228 1099 412.188L1099 423.374ZM1094.47 417.838L1094.47 413.326C1094.47 411.783 1094.18 410.658 1093.59 409.951C1093 409.243 1092.2 408.89 1091.21 408.89C1090.49 408.89 1089.85 409.064 1089.3 409.414C1088.74 409.763 1088.31 410.262 1087.99 410.909C1087.68 411.549 1087.52 412.311 1087.52 413.198L1087.52 417.838L1094.47 417.838ZM1083.77 417.838L1083.77 413.735C1083.77 412.976 1083.64 412.303 1083.38 411.715C1083.11 411.118 1082.72 410.65 1082.23 410.309C1081.73 409.959 1081.14 409.784 1080.45 409.784C1079.5 409.784 1078.74 410.121 1078.16 410.794C1077.58 411.459 1077.29 412.405 1077.29 413.632L1077.29 417.838L1083.77 417.838ZM1090.64 386.903L1079.36 386.903L1079.36 381.457L1099 381.457L1099 386.686L1095.43 386.686L1095.43 386.89C1096.58 387.334 1097.51 388.071 1098.21 389.102C1098.91 390.125 1099.26 391.373 1099.26 392.848C1099.26 394.16 1098.96 395.315 1098.36 396.312C1097.76 397.309 1096.92 398.089 1095.82 398.652C1094.72 399.206 1093.4 399.487 1091.87 399.495L1079.36 399.495L1079.36 394.049L1090.89 394.049C1092.05 394.041 1092.97 393.73 1093.64 393.116C1094.32 392.503 1094.65 391.68 1094.65 390.649C1094.65 389.993 1094.5 389.379 1094.21 388.808C1093.9 388.237 1093.45 387.777 1092.85 387.427C1092.25 387.069 1091.52 386.895 1090.64 386.903ZM1099 376.921L1079.36 376.921L1079.36 371.475L1099 371.475L1099 376.921ZM1076.83 374.185C1076.83 374.995 1076.56 375.689 1076.03 376.269C1075.48 376.84 1074.83 377.125 1074.07 377.125C1073.32 377.125 1072.68 376.84 1072.14 376.269C1071.6 375.689 1071.32 374.995 1071.32 374.185C1071.32 373.375 1071.6 372.685 1072.14 372.114C1072.68 371.535 1073.32 371.245 1074.07 371.245C1074.83 371.245 1075.48 371.535 1076.03 372.114C1076.56 372.685 1076.83 373.375 1076.83 374.185ZM1072.82 361.486L1099 361.486L1099 366.932L1072.82 366.932L1072.82 361.486ZM1099.32 349.708C1099.32 351.199 1098.94 352.55 1098.17 353.76C1097.39 354.962 1096.26 355.917 1094.76 356.624C1093.25 357.323 1091.4 357.672 1089.21 357.672C1086.96 357.672 1085.09 357.31 1083.6 356.586C1082.1 355.861 1080.97 354.898 1080.23 353.697C1079.48 352.486 1079.11 351.161 1079.11 349.721C1079.11 348.621 1079.3 347.705 1079.67 346.972C1080.04 346.231 1080.5 345.634 1081.05 345.182C1081.6 344.722 1082.13 344.373 1082.66 344.134L1082.66 343.968L1072.82 343.968L1072.82 338.535L1099 338.535L1099 343.904L1095.86 343.904L1095.86 344.134C1096.4 344.39 1096.94 344.752 1097.48 345.221C1098.01 345.681 1098.45 346.282 1098.8 347.023C1099.14 347.756 1099.32 348.651 1099.32 349.708ZM1094.99 347.982C1094.99 347.104 1094.75 346.363 1094.27 345.758C1093.78 345.144 1093.11 344.675 1092.24 344.351C1091.37 344.019 1090.35 343.853 1089.18 343.853C1088.01 343.853 1087 344.015 1086.14 344.339C1085.28 344.662 1084.61 345.131 1084.14 345.745C1083.68 346.359 1083.44 347.104 1083.44 347.982C1083.44 348.877 1083.68 349.631 1084.17 350.245C1084.66 350.859 1085.33 351.323 1086.19 351.638C1087.05 351.954 1088.05 352.111 1089.18 352.111C1090.32 352.111 1091.33 351.954 1092.21 351.638C1093.08 351.314 1093.76 350.85 1094.26 350.245C1094.74 349.631 1094.99 348.877 1094.99 347.982ZM1099 333.877L1079.36 333.877L1079.36 328.431L1099 328.431L1099 333.877ZM1076.83 331.141C1076.83 331.951 1076.56 332.645 1076.03 333.225C1075.48 333.796 1074.83 334.082 1074.07 334.082C1073.32 334.082 1072.68 333.796 1072.14 333.225C1071.6 332.645 1071.32 331.951 1071.32 331.141C1071.32 330.332 1071.6 329.641 1072.14 329.07C1072.68 328.491 1073.32 328.201 1074.07 328.201C1074.83 328.201 1075.48 328.491 1076.03 329.07C1076.56 329.641 1076.83 330.332 1076.83 331.141ZM1087.65 318.442L1099 318.442L1099 323.888L1079.36 323.888L1079.36 318.698L1082.83 318.698L1082.83 318.468C1081.69 318.033 1080.78 317.305 1080.12 316.282C1079.44 315.259 1079.11 314.019 1079.11 312.562C1079.11 311.198 1079.41 310.009 1080 308.995C1080.6 307.981 1081.45 307.192 1082.56 306.63C1083.66 306.067 1084.97 305.786 1086.5 305.786L1099 305.786L1099 311.232L1087.47 311.232C1086.27 311.224 1085.33 311.53 1084.66 312.153C1083.97 312.775 1083.63 313.631 1083.63 314.722C1083.63 315.455 1083.79 316.103 1084.11 316.665C1084.42 317.219 1084.88 317.654 1085.49 317.969C1086.08 318.276 1086.8 318.434 1087.65 318.442ZM1106.77 292.467C1106.77 294.231 1106.53 295.744 1106.04 297.006C1105.57 298.258 1104.91 299.256 1104.09 299.997C1103.26 300.739 1102.33 301.22 1101.3 301.442L1100.62 296.405C1101.02 296.251 1101.38 296.008 1101.72 295.676C1102.06 295.344 1102.34 294.905 1102.54 294.359C1102.75 293.805 1102.86 293.132 1102.86 292.339C1102.86 291.155 1102.57 290.179 1101.99 289.412C1101.42 288.636 1100.46 288.249 1099.12 288.249L1095.52 288.249L1095.52 288.479C1096.07 288.717 1096.58 289.075 1097.07 289.553C1097.56 290.03 1097.95 290.643 1098.26 291.393C1098.57 292.143 1098.72 293.038 1098.72 294.078C1098.72 295.553 1098.38 296.895 1097.7 298.105C1097.01 299.307 1095.95 300.266 1094.54 300.981C1093.12 301.689 1091.32 302.043 1089.14 302.043C1086.92 302.043 1085.06 301.68 1083.57 300.956C1082.08 300.231 1080.96 299.268 1080.22 298.067C1079.48 296.856 1079.11 295.531 1079.11 294.091C1079.11 292.991 1079.3 292.071 1079.67 291.33C1080.04 290.588 1080.5 289.991 1081.05 289.54C1081.6 289.08 1082.13 288.726 1082.66 288.479L1082.66 288.274L1079.36 288.274L1079.36 282.866L1099.19 282.866C1100.86 282.866 1102.26 283.276 1103.38 284.094C1104.51 284.912 1105.35 286.045 1105.92 287.494C1106.49 288.935 1106.77 290.592 1106.77 292.467ZM1094.63 292.352C1094.63 291.474 1094.41 290.733 1093.98 290.128C1093.53 289.514 1092.9 289.045 1092.08 288.722C1091.26 288.389 1090.27 288.223 1089.12 288.223C1087.97 288.223 1086.97 288.385 1086.13 288.709C1085.27 289.033 1084.61 289.501 1084.14 290.115C1083.68 290.729 1083.44 291.474 1083.44 292.352C1083.44 293.247 1083.68 294.001 1084.17 294.615C1084.65 295.229 1085.31 295.693 1086.16 296.008C1087.02 296.324 1088 296.481 1089.12 296.481C1090.25 296.481 1091.23 296.324 1092.06 296.008C1092.88 295.685 1093.51 295.22 1093.96 294.615C1094.41 294.001 1094.63 293.247 1094.63 292.352Z" fill="white"/>
<path d="M808.142 417.298C807.02 417.291 805.937 417.103 804.893 416.734C803.856 416.364 802.925 415.764 802.102 414.933C801.278 414.102 800.624 413.001 800.141 411.631C799.665 410.26 799.428 408.577 799.428 406.581C799.435 404.749 799.644 403.112 800.056 401.67C800.475 400.221 801.072 398.992 801.846 397.984C802.627 396.975 803.561 396.208 804.648 395.683C805.734 395.15 806.952 394.884 808.302 394.884C809.758 394.884 811.043 395.168 812.158 395.736C813.273 396.297 814.168 397.06 814.843 398.026C815.525 398.992 815.937 400.075 816.079 401.276H811.53C811.352 400.516 810.979 399.919 810.411 399.486C809.843 399.053 809.14 398.836 808.302 398.836C806.881 398.836 805.802 399.454 805.063 400.69C804.332 401.925 803.959 403.605 803.945 405.729H804.094C804.42 405.082 804.861 404.532 805.415 404.077C805.976 403.616 806.612 403.264 807.322 403.023C808.039 402.774 808.795 402.65 809.591 402.65C810.884 402.65 812.034 402.955 813.043 403.566C814.051 404.17 814.847 405.001 815.429 406.059C816.011 407.117 816.303 408.328 816.303 409.692C816.303 411.169 815.958 412.483 815.269 413.634C814.587 414.784 813.632 415.686 812.403 416.339C811.182 416.986 809.761 417.305 808.142 417.298ZM808.121 413.676C808.831 413.676 809.467 413.506 810.028 413.165C810.589 412.824 811.029 412.362 811.349 411.78C811.668 411.197 811.828 410.544 811.828 409.82C811.828 409.095 811.668 408.445 811.349 407.87C811.036 407.295 810.603 406.837 810.049 406.496C809.495 406.155 808.863 405.984 808.153 405.984C807.62 405.984 807.126 406.084 806.672 406.283C806.224 406.482 805.83 406.759 805.489 407.114C805.156 407.469 804.893 407.881 804.701 408.349C804.509 408.811 804.413 409.305 804.413 409.83C804.413 410.533 804.573 411.176 804.893 411.759C805.219 412.341 805.66 412.806 806.214 413.154C806.775 413.502 807.411 413.676 808.121 413.676ZM828.278 417.479C826.445 417.472 824.869 417.021 823.548 416.126C822.234 415.232 821.222 413.935 820.512 412.238C819.808 410.54 819.46 408.499 819.467 406.112C819.467 403.733 819.819 401.705 820.522 400.029C821.232 398.353 822.244 397.078 823.558 396.205C824.879 395.324 826.453 394.884 828.278 394.884C830.103 394.884 831.673 395.324 832.987 396.205C834.308 397.085 835.323 398.364 836.034 400.04C836.744 401.709 837.095 403.733 837.088 406.112C837.088 408.506 836.733 410.551 836.023 412.249C835.32 413.946 834.311 415.242 832.997 416.137C831.683 417.032 830.11 417.479 828.278 417.479ZM828.278 413.655C829.528 413.655 830.526 413.026 831.271 411.769C832.017 410.512 832.387 408.626 832.379 406.112C832.379 404.457 832.209 403.08 831.868 401.979C831.534 400.878 831.058 400.05 830.44 399.496C829.83 398.942 829.109 398.665 828.278 398.665C827.035 398.665 826.041 399.287 825.295 400.53C824.549 401.773 824.173 403.634 824.166 406.112C824.166 407.788 824.333 409.188 824.666 410.31C825.007 411.425 825.487 412.263 826.105 412.824C826.722 413.378 827.447 413.655 828.278 413.655ZM852.47 412.909V411.759C852.47 410.885 852.655 410.082 853.024 409.351C853.4 408.612 853.944 408.023 854.654 407.582C855.371 407.135 856.245 406.911 857.275 406.911C858.319 406.911 859.196 407.131 859.906 407.572C860.623 408.012 861.163 408.602 861.525 409.34C861.895 410.072 862.079 410.878 862.079 411.759V412.909C862.079 413.783 861.895 414.589 861.525 415.327C861.156 416.059 860.613 416.645 859.895 417.085C859.178 417.533 858.304 417.756 857.275 417.756C856.231 417.756 855.353 417.533 854.643 417.085C853.933 416.645 853.393 416.059 853.024 415.327C852.655 414.589 852.47 413.783 852.47 412.909ZM855.57 411.759V412.909C855.57 413.413 855.691 413.889 855.932 414.337C856.181 414.784 856.628 415.008 857.275 415.008C857.921 415.008 858.361 414.788 858.596 414.347C858.837 413.907 858.958 413.428 858.958 412.909V411.759C858.958 411.24 858.844 410.757 858.617 410.31C858.39 409.862 857.942 409.638 857.275 409.638C856.635 409.638 856.192 409.862 855.943 410.31C855.694 410.757 855.57 411.24 855.57 411.759ZM841.273 400.423V399.273C841.273 398.392 841.461 397.586 841.838 396.854C842.214 396.116 842.758 395.526 843.468 395.086C844.185 394.646 845.052 394.425 846.067 394.425C847.118 394.425 847.999 394.646 848.709 395.086C849.419 395.526 849.959 396.116 850.329 396.854C850.698 397.586 850.883 398.392 850.883 399.273V400.423C850.883 401.304 850.694 402.11 850.318 402.842C849.949 403.573 849.405 404.159 848.688 404.599C847.978 405.033 847.104 405.249 846.067 405.249C845.03 405.249 844.153 405.029 843.436 404.589C842.726 404.141 842.186 403.555 841.817 402.831C841.454 402.099 841.273 401.297 841.273 400.423ZM844.395 399.273V400.423C844.395 400.942 844.515 401.421 844.757 401.862C845.005 402.302 845.442 402.522 846.067 402.522C846.721 402.522 847.165 402.302 847.399 401.862C847.64 401.421 847.761 400.942 847.761 400.423V399.273C847.761 398.754 847.647 398.271 847.42 397.824C847.193 397.376 846.742 397.153 846.067 397.153C845.435 397.153 844.998 397.38 844.757 397.835C844.515 398.289 844.395 398.768 844.395 399.273ZM842.679 417L857.679 395.182H860.471L845.471 417H842.679ZM873.68 417V395.182H882.288C883.936 395.182 885.342 395.477 886.507 396.066C887.678 396.648 888.57 397.476 889.181 398.548C889.799 399.614 890.107 400.867 890.107 402.309C890.107 403.758 889.795 405.004 889.17 406.048C888.545 407.085 887.639 407.881 886.453 408.435C885.274 408.989 883.847 409.266 882.171 409.266H876.407V405.558H881.425C882.306 405.558 883.037 405.437 883.62 405.196C884.202 404.955 884.635 404.592 884.919 404.109C885.21 403.626 885.356 403.026 885.356 402.309C885.356 401.585 885.21 400.974 884.919 400.477C884.635 399.979 884.198 399.603 883.609 399.347C883.026 399.085 882.291 398.953 881.404 398.953H878.293V417H873.68ZM885.463 407.071L890.885 417H885.793L880.487 407.071H885.463ZM900.626 417.32C898.943 417.32 897.494 416.979 896.279 416.297C895.072 415.608 894.142 414.635 893.488 413.378C892.835 412.114 892.508 410.619 892.508 408.893C892.508 407.21 892.835 405.732 893.488 404.461C894.142 403.19 895.061 402.199 896.247 401.489C897.441 400.778 898.84 400.423 900.445 400.423C901.524 400.423 902.529 400.597 903.46 400.945C904.397 401.286 905.214 401.801 905.91 402.49C906.613 403.179 907.16 404.045 907.551 405.089C907.941 406.126 908.137 407.341 908.137 408.733V409.979H894.319V407.167H903.865C903.865 406.513 903.722 405.935 903.438 405.43C903.154 404.926 902.76 404.532 902.256 404.248C901.759 403.957 901.18 403.811 900.519 403.811C899.83 403.811 899.22 403.971 898.687 404.29C898.161 404.603 897.749 405.026 897.451 405.558C897.153 406.084 897 406.67 896.993 407.316V409.99C896.993 410.8 897.142 411.499 897.441 412.089C897.746 412.678 898.176 413.133 898.73 413.452C899.284 413.772 899.941 413.932 900.7 413.932C901.205 413.932 901.666 413.861 902.085 413.719C902.504 413.577 902.863 413.364 903.161 413.08C903.46 412.795 903.687 412.447 903.843 412.036L908.041 412.312C907.828 413.321 907.391 414.202 906.73 414.955C906.077 415.7 905.232 416.283 904.195 416.702C903.165 417.114 901.975 417.32 900.626 417.32ZM919.952 400.636V404.045H910.098V400.636H919.952ZM912.335 396.716H916.873V411.972C916.873 412.391 916.937 412.717 917.065 412.952C917.193 413.179 917.37 413.339 917.598 413.431C917.832 413.523 918.102 413.57 918.407 413.57C918.62 413.57 918.833 413.552 919.046 413.516C919.26 413.474 919.423 413.442 919.537 413.42L920.25 416.798C920.023 416.869 919.703 416.95 919.292 417.043C918.88 417.142 918.379 417.202 917.789 417.224C916.696 417.266 915.737 417.121 914.913 416.787C914.096 416.453 913.461 415.935 913.006 415.232C912.551 414.528 912.328 413.641 912.335 412.568V396.716ZM930.34 417.32C928.657 417.32 927.208 416.979 925.993 416.297C924.786 415.608 923.856 414.635 923.202 413.378C922.549 412.114 922.222 410.619 922.222 408.893C922.222 407.21 922.549 405.732 923.202 404.461C923.856 403.19 924.775 402.199 925.961 401.489C927.155 400.778 928.554 400.423 930.159 400.423C931.238 400.423 932.243 400.597 933.174 400.945C934.111 401.286 934.928 401.801 935.624 402.49C936.327 403.179 936.874 404.045 937.265 405.089C937.655 406.126 937.851 407.341 937.851 408.733V409.979H924.033V407.167H933.579C933.579 406.513 933.437 405.935 933.152 405.43C932.868 404.926 932.474 404.532 931.97 404.248C931.473 403.957 930.894 403.811 930.233 403.811C929.544 403.811 928.934 403.971 928.401 404.29C927.875 404.603 927.464 405.026 927.165 405.558C926.867 406.084 926.714 406.67 926.707 407.316V409.99C926.707 410.8 926.856 411.499 927.155 412.089C927.46 412.678 927.89 413.133 928.444 413.452C928.998 413.772 929.655 413.932 930.415 413.932C930.919 413.932 931.38 413.861 931.799 413.719C932.219 413.577 932.577 413.364 932.875 413.08C933.174 412.795 933.401 412.447 933.557 412.036L937.755 412.312C937.542 413.321 937.105 414.202 936.444 414.955C935.791 415.7 934.946 416.283 933.909 416.702C932.879 417.114 931.689 417.32 930.34 417.32ZM945.501 407.54V417H940.962V400.636H945.288V403.523H945.479C945.842 402.572 946.449 401.819 947.301 401.265C948.153 400.704 949.187 400.423 950.401 400.423C951.538 400.423 952.528 400.672 953.373 401.169C954.219 401.666 954.876 402.376 955.344 403.3C955.813 404.216 956.047 405.31 956.047 406.581V417H951.509V407.391C951.516 406.389 951.261 405.608 950.742 405.047C950.224 404.479 949.51 404.195 948.601 404.195C947.99 404.195 947.45 404.326 946.981 404.589C946.52 404.852 946.158 405.235 945.895 405.739C945.639 406.237 945.508 406.837 945.501 407.54ZM968.478 400.636V404.045H958.624V400.636H968.478ZM960.861 396.716H965.399V411.972C965.399 412.391 965.463 412.717 965.591 412.952C965.719 413.179 965.897 413.339 966.124 413.431C966.358 413.523 966.628 413.57 966.933 413.57C967.147 413.57 967.36 413.552 967.573 413.516C967.786 413.474 967.949 413.442 968.063 413.42L968.776 416.798C968.549 416.869 968.23 416.95 967.818 417.043C967.406 417.142 966.905 417.202 966.316 417.224C965.222 417.266 964.263 417.121 963.439 416.787C962.622 416.453 961.987 415.935 961.532 415.232C961.078 414.528 960.854 413.641 960.861 412.568V396.716ZM971.585 417V400.636H976.123V417H971.585ZM973.864 398.527C973.19 398.527 972.611 398.303 972.128 397.856C971.652 397.401 971.414 396.858 971.414 396.226C971.414 395.601 971.652 395.065 972.128 394.617C972.611 394.163 973.19 393.935 973.864 393.935C974.539 393.935 975.114 394.163 975.59 394.617C976.073 395.065 976.315 395.601 976.315 396.226C976.315 396.858 976.073 397.401 975.59 397.856C975.114 398.303 974.539 398.527 973.864 398.527ZM987.302 417.32C985.647 417.32 984.216 416.968 983.008 416.265C981.808 415.555 980.881 414.567 980.228 413.303C979.575 412.032 979.248 410.558 979.248 408.882C979.248 407.192 979.575 405.714 980.228 404.45C980.881 403.179 981.808 402.192 983.008 401.489C984.216 400.778 985.647 400.423 987.302 400.423C988.957 400.423 990.384 400.778 991.584 401.489C992.792 402.192 993.722 403.179 994.376 404.45C995.029 405.714 995.356 407.192 995.356 408.882C995.356 410.558 995.029 412.032 994.376 413.303C993.722 414.567 992.792 415.555 991.584 416.265C990.384 416.968 988.957 417.32 987.302 417.32ZM987.323 413.804C988.076 413.804 988.705 413.591 989.209 413.165C989.713 412.732 990.093 412.142 990.349 411.396C990.611 410.651 990.743 409.802 990.743 408.85C990.743 407.898 990.611 407.05 990.349 406.304C990.093 405.558 989.713 404.969 989.209 404.536C988.705 404.102 988.076 403.886 987.323 403.886C986.563 403.886 985.924 404.102 985.405 404.536C984.894 404.969 984.507 405.558 984.244 406.304C983.989 407.05 983.861 407.898 983.861 408.85C983.861 409.802 983.989 410.651 984.244 411.396C984.507 412.142 984.894 412.732 985.405 413.165C985.924 413.591 986.563 413.804 987.323 413.804ZM1003 407.54V417H998.457V400.636H1002.78V403.523H1002.97C1003.34 402.572 1003.94 401.819 1004.8 401.265C1005.65 400.704 1006.68 400.423 1007.9 400.423C1009.03 400.423 1010.02 400.672 1010.87 401.169C1011.71 401.666 1012.37 402.376 1012.84 403.3C1013.31 404.216 1013.54 405.31 1013.54 406.581V417H1009V407.391C1009.01 406.389 1008.76 405.608 1008.24 405.047C1007.72 404.479 1007 404.195 1006.1 404.195C1005.48 404.195 1004.94 404.326 1004.48 404.589C1004.01 404.852 1003.65 405.235 1003.39 405.739C1003.13 406.237 1003 406.837 1003 407.54Z" fill="white"/>
<path d="M852.768 568V564.676L860.535 557.485C861.195 556.846 861.749 556.271 862.197 555.759C862.651 555.248 862.996 554.747 863.23 554.257C863.464 553.76 863.582 553.224 863.582 552.648C863.582 552.009 863.436 551.459 863.145 550.997C862.854 550.528 862.456 550.17 861.952 549.921C861.447 549.665 860.876 549.538 860.237 549.538C859.569 549.538 858.987 549.673 858.489 549.942C857.992 550.212 857.609 550.599 857.339 551.104C857.069 551.608 856.934 552.208 856.934 552.904H852.555C852.555 551.477 852.879 550.237 853.525 549.186C854.171 548.135 855.077 547.322 856.241 546.746C857.406 546.171 858.749 545.884 860.268 545.884C861.831 545.884 863.191 546.161 864.349 546.714C865.513 547.261 866.419 548.021 867.065 548.994C867.712 549.967 868.035 551.082 868.035 552.339C868.035 553.163 867.871 553.977 867.545 554.779C867.225 555.582 866.653 556.473 865.83 557.453C865.006 558.426 863.844 559.594 862.346 560.958L859.161 564.08V564.229H868.322V568H852.768ZM880.37 568.479C878.537 568.472 876.961 568.021 875.64 567.126C874.326 566.232 873.314 564.935 872.603 563.238C871.9 561.54 871.552 559.499 871.559 557.112C871.559 554.733 871.911 552.705 872.614 551.029C873.324 549.353 874.336 548.078 875.65 547.205C876.971 546.324 878.544 545.884 880.37 545.884C882.195 545.884 883.765 546.324 885.078 547.205C886.399 548.085 887.415 549.364 888.125 551.04C888.836 552.709 889.187 554.733 889.18 557.112C889.18 559.506 888.825 561.551 888.115 563.249C887.412 564.946 886.403 566.242 885.089 567.137C883.775 568.032 882.202 568.479 880.37 568.479ZM880.37 564.655C881.62 564.655 882.618 564.026 883.363 562.769C884.109 561.512 884.478 559.626 884.471 557.112C884.471 555.457 884.301 554.08 883.96 552.979C883.626 551.878 883.15 551.05 882.532 550.496C881.921 549.942 881.201 549.665 880.37 549.665C879.127 549.665 878.132 550.287 877.387 551.53C876.641 552.773 876.265 554.634 876.257 557.112C876.257 558.788 876.424 560.188 876.758 561.31C877.099 562.425 877.578 563.263 878.196 563.824C878.814 564.378 879.539 564.655 880.37 564.655ZM904.562 563.909V562.759C904.562 561.885 904.746 561.082 905.116 560.351C905.492 559.612 906.035 559.023 906.746 558.582C907.463 558.135 908.337 557.911 909.366 557.911C910.41 557.911 911.288 558.131 911.998 558.572C912.715 559.012 913.255 559.602 913.617 560.34C913.986 561.072 914.171 561.878 914.171 562.759V563.909C914.171 564.783 913.986 565.589 913.617 566.327C913.248 567.059 912.704 567.645 911.987 568.085C911.27 568.533 910.396 568.756 909.366 568.756C908.322 568.756 907.445 568.533 906.735 568.085C906.025 567.645 905.485 567.059 905.116 566.327C904.746 565.589 904.562 564.783 904.562 563.909ZM907.662 562.759V563.909C907.662 564.413 907.783 564.889 908.024 565.337C908.273 565.784 908.72 566.008 909.366 566.008C910.013 566.008 910.453 565.788 910.687 565.347C910.929 564.907 911.05 564.428 911.05 563.909V562.759C911.05 562.24 910.936 561.757 910.709 561.31C910.481 560.862 910.034 560.638 909.366 560.638C908.727 560.638 908.283 560.862 908.035 561.31C907.786 561.757 907.662 562.24 907.662 562.759ZM893.365 551.423V550.273C893.365 549.392 893.553 548.586 893.93 547.854C894.306 547.116 894.849 546.526 895.56 546.086C896.277 545.646 897.143 545.425 898.159 545.425C899.21 545.425 900.091 545.646 900.801 546.086C901.511 546.526 902.051 547.116 902.42 547.854C902.79 548.586 902.974 549.392 902.974 550.273V551.423C902.974 552.304 902.786 553.11 902.41 553.842C902.04 554.573 901.497 555.159 900.78 555.599C900.07 556.033 899.196 556.249 898.159 556.249C897.122 556.249 896.245 556.029 895.528 555.589C894.817 555.141 894.278 554.555 893.908 553.831C893.546 553.099 893.365 552.297 893.365 551.423ZM896.486 550.273V551.423C896.486 551.942 896.607 552.421 896.849 552.862C897.097 553.302 897.534 553.522 898.159 553.522C898.812 553.522 899.256 553.302 899.491 552.862C899.732 552.421 899.853 551.942 899.853 551.423V550.273C899.853 549.754 899.739 549.271 899.512 548.824C899.285 548.376 898.834 548.153 898.159 548.153C897.527 548.153 897.09 548.38 896.849 548.835C896.607 549.289 896.486 549.768 896.486 550.273ZM894.771 568L909.771 546.182H912.562L897.562 568H894.771ZM925.772 568V546.182H934.38C936.027 546.182 937.434 546.477 938.598 547.066C939.77 547.648 940.662 548.476 941.272 549.548C941.89 550.614 942.199 551.867 942.199 553.309C942.199 554.758 941.887 556.004 941.262 557.048C940.637 558.085 939.731 558.881 938.545 559.435C937.366 559.989 935.939 560.266 934.262 560.266H928.499V556.558H933.517C934.397 556.558 935.129 556.437 935.711 556.196C936.294 555.955 936.727 555.592 937.011 555.109C937.302 554.626 937.448 554.026 937.448 553.309C937.448 552.585 937.302 551.974 937.011 551.477C936.727 550.979 936.29 550.603 935.701 550.347C935.118 550.085 934.383 549.953 933.495 549.953H930.385V568H925.772ZM937.554 558.071L942.977 568H937.885L932.579 558.071H937.554ZM952.718 568.32C951.034 568.32 949.586 567.979 948.371 567.297C947.164 566.608 946.233 565.635 945.58 564.378C944.926 563.114 944.6 561.619 944.6 559.893C944.6 558.21 944.926 556.732 945.58 555.461C946.233 554.19 947.153 553.199 948.339 552.489C949.532 551.778 950.931 551.423 952.537 551.423C953.616 551.423 954.621 551.597 955.551 551.945C956.489 552.286 957.306 552.801 958.002 553.49C958.705 554.179 959.252 555.045 959.642 556.089C960.033 557.126 960.228 558.341 960.228 559.733V560.979H946.411V558.167H955.956C955.956 557.513 955.814 556.935 955.53 556.43C955.246 555.926 954.852 555.532 954.348 555.248C953.85 554.957 953.272 554.811 952.611 554.811C951.922 554.811 951.311 554.971 950.779 555.29C950.253 555.603 949.841 556.026 949.543 556.558C949.245 557.084 949.092 557.67 949.085 558.316V560.99C949.085 561.8 949.234 562.499 949.532 563.089C949.838 563.678 950.267 564.133 950.821 564.452C951.375 564.772 952.032 564.932 952.792 564.932C953.297 564.932 953.758 564.861 954.177 564.719C954.596 564.577 954.955 564.364 955.253 564.08C955.551 563.795 955.779 563.447 955.935 563.036L960.132 563.312C959.919 564.321 959.483 565.202 958.822 565.955C958.169 566.7 957.324 567.283 956.287 567.702C955.257 568.114 954.067 568.32 952.718 568.32ZM973.834 561.033V551.636H978.372V568H974.015V565.028H973.844C973.475 565.987 972.861 566.757 972.001 567.339C971.149 567.922 970.108 568.213 968.88 568.213C967.786 568.213 966.824 567.964 965.993 567.467C965.162 566.97 964.512 566.263 964.043 565.347C963.581 564.431 963.347 563.334 963.34 562.055V551.636H967.878V561.246C967.885 562.212 968.145 562.975 968.656 563.536C969.167 564.097 969.853 564.378 970.712 564.378C971.259 564.378 971.77 564.254 972.246 564.005C972.722 563.749 973.106 563.373 973.397 562.876C973.695 562.379 973.841 561.764 973.834 561.033ZM995.767 556.303L991.612 556.558C991.541 556.203 991.389 555.884 991.154 555.599C990.92 555.308 990.611 555.077 990.227 554.907C989.851 554.729 989.4 554.641 988.874 554.641C988.171 554.641 987.578 554.79 987.095 555.088C986.612 555.379 986.371 555.77 986.371 556.26C986.371 556.651 986.527 556.981 986.84 557.251C987.152 557.521 987.688 557.737 988.448 557.901L991.41 558.497C993.001 558.824 994.187 559.349 994.968 560.074C995.749 560.798 996.14 561.75 996.14 562.929C996.14 564.001 995.824 564.942 995.192 565.752C994.567 566.562 993.707 567.194 992.614 567.648C991.527 568.096 990.274 568.32 988.853 568.32C986.687 568.32 984.961 567.869 983.676 566.967C982.397 566.058 981.648 564.822 981.428 563.259L985.891 563.025C986.026 563.685 986.353 564.19 986.872 564.538C987.39 564.879 988.054 565.049 988.864 565.049C989.659 565.049 990.298 564.896 990.781 564.591C991.271 564.278 991.52 563.877 991.527 563.387C991.52 562.975 991.346 562.638 991.005 562.375C990.664 562.105 990.139 561.899 989.428 561.757L986.595 561.192C984.997 560.873 983.807 560.319 983.026 559.531C982.252 558.742 981.864 557.737 981.864 556.516C981.864 555.464 982.149 554.559 982.717 553.799C983.292 553.039 984.098 552.453 985.135 552.041C986.179 551.629 987.401 551.423 988.8 551.423C990.867 551.423 992.493 551.86 993.679 552.734C994.872 553.607 995.568 554.797 995.767 556.303ZM1006.61 568.32C1004.92 568.32 1003.47 567.979 1002.26 567.297C1001.05 566.608 1000.12 565.635 999.467 564.378C998.814 563.114 998.487 561.619 998.487 559.893C998.487 558.21 998.814 556.732 999.467 555.461C1000.12 554.19 1001.04 553.199 1002.23 552.489C1003.42 551.778 1004.82 551.423 1006.42 551.423C1007.5 551.423 1008.51 551.597 1009.44 551.945C1010.38 552.286 1011.19 552.801 1011.89 553.49C1012.59 554.179 1013.14 555.045 1013.53 556.089C1013.92 557.126 1014.12 558.341 1014.12 559.733V560.979H1000.3V558.167H1009.84C1009.84 557.513 1009.7 556.935 1009.42 556.43C1009.13 555.926 1008.74 555.532 1008.24 555.248C1007.74 554.957 1007.16 554.811 1006.5 554.811C1005.81 554.811 1005.2 554.971 1004.67 555.29C1004.14 555.603 1003.73 556.026 1003.43 556.558C1003.13 557.084 1002.98 557.67 1002.97 558.316V560.99C1002.97 561.8 1003.12 562.499 1003.42 563.089C1003.73 563.678 1004.15 564.133 1004.71 564.452C1005.26 564.772 1005.92 564.932 1006.68 564.932C1007.18 564.932 1007.65 564.861 1008.06 564.719C1008.48 564.577 1008.84 564.364 1009.14 564.08C1009.44 563.795 1009.67 563.447 1009.82 563.036L1014.02 563.312C1013.81 564.321 1013.37 565.202 1012.71 565.955C1012.06 566.7 1011.21 567.283 1010.17 567.702C1009.14 568.114 1007.95 568.32 1006.61 568.32Z" fill="white"/>
<path d="M1155.26 659.182V681H1150.65V663.56H1150.52L1145.52 666.692V662.602L1150.92 659.182H1155.26ZM1168.74 681.298C1167.09 681.298 1165.64 681.032 1164.36 680.499C1163.09 679.96 1162.09 679.224 1161.36 678.294C1160.64 677.364 1160.28 676.309 1160.28 675.13C1160.28 674.221 1160.48 673.386 1160.89 672.626C1161.31 671.859 1161.88 671.224 1162.6 670.719C1163.32 670.208 1164.12 669.881 1165.01 669.739V669.59C1163.84 669.356 1162.9 668.791 1162.17 667.896C1161.45 666.994 1161.09 665.947 1161.09 664.754C1161.09 663.624 1161.42 662.619 1162.08 661.739C1162.74 660.851 1163.64 660.155 1164.79 659.651C1165.95 659.139 1167.27 658.884 1168.74 658.884C1170.21 658.884 1171.52 659.139 1172.67 659.651C1173.82 660.162 1174.73 660.862 1175.39 661.749C1176.05 662.63 1176.39 663.631 1176.4 664.754C1176.39 665.954 1176.02 667.001 1175.29 667.896C1174.56 668.791 1173.62 669.356 1172.47 669.59V669.739C1173.35 669.881 1174.14 670.208 1174.85 670.719C1175.57 671.224 1176.14 671.859 1176.56 672.626C1176.98 673.386 1177.2 674.221 1177.2 675.13C1177.2 676.309 1176.83 677.364 1176.11 678.294C1175.38 679.224 1174.38 679.96 1173.1 680.499C1171.83 681.032 1170.38 681.298 1168.74 681.298ZM1168.74 677.911C1169.47 677.911 1170.11 677.779 1170.65 677.516C1171.2 677.246 1171.63 676.877 1171.93 676.408C1172.24 675.933 1172.4 675.386 1172.4 674.768C1172.4 674.136 1172.24 673.578 1171.92 673.095C1171.6 672.605 1171.17 672.222 1170.62 671.945C1170.07 671.661 1169.45 671.518 1168.74 671.518C1168.03 671.518 1167.4 671.661 1166.85 671.945C1166.3 672.222 1165.86 672.605 1165.54 673.095C1165.23 673.578 1165.07 674.136 1165.07 674.768C1165.07 675.386 1165.22 675.933 1165.53 676.408C1165.83 676.877 1166.26 677.246 1166.82 677.516C1167.37 677.779 1168.01 677.911 1168.74 677.911ZM1168.74 668.163C1169.35 668.163 1169.89 668.038 1170.37 667.79C1170.84 667.541 1171.21 667.197 1171.48 666.756C1171.75 666.316 1171.89 665.808 1171.89 665.233C1171.89 664.665 1171.75 664.168 1171.48 663.741C1171.21 663.308 1170.84 662.971 1170.38 662.729C1169.91 662.481 1169.36 662.357 1168.74 662.357C1168.12 662.357 1167.57 662.481 1167.09 662.729C1166.62 662.971 1166.25 663.308 1165.98 663.741C1165.71 664.168 1165.58 664.665 1165.58 665.233C1165.58 665.808 1165.72 666.316 1165.99 666.756C1166.26 667.197 1166.63 667.541 1167.11 667.79C1167.58 668.038 1168.12 668.163 1168.74 668.163ZM1192.52 676.909V675.759C1192.52 674.885 1192.71 674.082 1193.08 673.351C1193.45 672.612 1194 672.023 1194.71 671.582C1195.42 671.135 1196.3 670.911 1197.33 670.911C1198.37 670.911 1199.25 671.131 1199.96 671.572C1200.68 672.012 1201.22 672.602 1201.58 673.34C1201.95 674.072 1202.13 674.878 1202.13 675.759V676.909C1202.13 677.783 1201.95 678.589 1201.58 679.327C1201.21 680.059 1200.67 680.645 1199.95 681.085C1199.23 681.533 1198.36 681.756 1197.33 681.756C1196.28 681.756 1195.41 681.533 1194.7 681.085C1193.99 680.645 1193.45 680.059 1193.08 679.327C1192.71 678.589 1192.52 677.783 1192.52 676.909ZM1195.62 675.759V676.909C1195.62 677.413 1195.74 677.889 1195.99 678.337C1196.23 678.784 1196.68 679.008 1197.33 679.008C1197.97 679.008 1198.41 678.788 1198.65 678.347C1198.89 677.907 1199.01 677.428 1199.01 676.909V675.759C1199.01 675.24 1198.9 674.757 1198.67 674.31C1198.44 673.862 1197.99 673.638 1197.33 673.638C1196.69 673.638 1196.24 673.862 1196 674.31C1195.75 674.757 1195.62 675.24 1195.62 675.759ZM1181.33 664.423V663.273C1181.33 662.392 1181.51 661.586 1181.89 660.854C1182.27 660.116 1182.81 659.526 1183.52 659.086C1184.24 658.646 1185.1 658.425 1186.12 658.425C1187.17 658.425 1188.05 658.646 1188.76 659.086C1189.47 659.526 1190.01 660.116 1190.38 660.854C1190.75 661.586 1190.94 662.392 1190.94 663.273V664.423C1190.94 665.304 1190.75 666.11 1190.37 666.842C1190 667.573 1189.46 668.159 1188.74 668.599C1188.03 669.033 1187.16 669.249 1186.12 669.249C1185.08 669.249 1184.21 669.029 1183.49 668.589C1182.78 668.141 1182.24 667.555 1181.87 666.831C1181.51 666.099 1181.33 665.297 1181.33 664.423ZM1184.45 663.273V664.423C1184.45 664.942 1184.57 665.421 1184.81 665.862C1185.06 666.302 1185.49 666.522 1186.12 666.522C1186.77 666.522 1187.22 666.302 1187.45 665.862C1187.69 665.421 1187.81 664.942 1187.81 664.423V663.273C1187.81 662.754 1187.7 662.271 1187.47 661.824C1187.25 661.376 1186.79 661.153 1186.12 661.153C1185.49 661.153 1185.05 661.38 1184.81 661.835C1184.57 662.289 1184.45 662.768 1184.45 663.273ZM1182.73 681L1197.73 659.182H1200.52L1185.52 681H1182.73ZM1213.73 681V659.182H1222.34C1223.99 659.182 1225.39 659.477 1226.56 660.066C1227.73 660.648 1228.62 661.476 1229.23 662.548C1229.85 663.614 1230.16 664.867 1230.16 666.309C1230.16 667.758 1229.85 669.004 1229.22 670.048C1228.6 671.085 1227.69 671.881 1226.51 672.435C1225.33 672.989 1223.9 673.266 1222.22 673.266H1216.46V669.558H1221.48C1222.36 669.558 1223.09 669.437 1223.67 669.196C1224.25 668.955 1224.69 668.592 1224.97 668.109C1225.26 667.626 1225.41 667.026 1225.41 666.309C1225.41 665.585 1225.26 664.974 1224.97 664.477C1224.69 663.979 1224.25 663.603 1223.66 663.347C1223.08 663.085 1222.34 662.953 1221.46 662.953H1218.35V681H1213.73ZM1225.52 671.071L1230.94 681H1225.85L1220.54 671.071H1225.52ZM1240.68 681.32C1239 681.32 1237.55 680.979 1236.33 680.297C1235.12 679.608 1234.19 678.635 1233.54 677.378C1232.89 676.114 1232.56 674.619 1232.56 672.893C1232.56 671.21 1232.89 669.732 1233.54 668.461C1234.19 667.19 1235.11 666.199 1236.3 665.489C1237.49 664.778 1238.89 664.423 1240.5 664.423C1241.58 664.423 1242.58 664.597 1243.51 664.945C1244.45 665.286 1245.27 665.801 1245.96 666.49C1246.67 667.179 1247.21 668.045 1247.6 669.089C1247.99 670.126 1248.19 671.341 1248.19 672.733V673.979H1234.37V671.167H1243.92C1243.92 670.513 1243.78 669.935 1243.49 669.43C1243.21 668.926 1242.81 668.532 1242.31 668.248C1241.81 667.957 1241.23 667.811 1240.57 667.811C1239.88 667.811 1239.27 667.971 1238.74 668.29C1238.21 668.603 1237.8 669.026 1237.5 669.558C1237.21 670.084 1237.05 670.67 1237.05 671.316V673.99C1237.05 674.8 1237.19 675.499 1237.49 676.089C1237.8 676.678 1238.23 677.133 1238.78 677.452C1239.34 677.772 1239.99 677.932 1240.75 677.932C1241.26 677.932 1241.72 677.861 1242.14 677.719C1242.56 677.577 1242.92 677.364 1243.21 677.08C1243.51 676.795 1243.74 676.447 1243.9 676.036L1248.09 676.312C1247.88 677.321 1247.44 678.202 1246.78 678.955C1246.13 679.7 1245.28 680.283 1244.25 680.702C1243.22 681.114 1242.03 681.32 1240.68 681.32ZM1258.69 681.32C1257.02 681.32 1255.58 680.964 1254.37 680.254C1253.17 679.537 1252.25 678.543 1251.6 677.271C1250.96 676 1250.64 674.537 1250.64 672.882C1250.64 671.206 1250.96 669.736 1251.61 668.472C1252.26 667.2 1253.19 666.21 1254.39 665.499C1255.59 664.782 1257.02 664.423 1258.67 664.423C1260.1 664.423 1261.35 664.683 1262.42 665.201C1263.5 665.719 1264.34 666.447 1264.97 667.385C1265.59 668.322 1265.94 669.423 1266 670.688H1261.72C1261.6 669.871 1261.28 669.214 1260.76 668.717C1260.25 668.212 1259.58 667.96 1258.75 667.96C1258.04 667.96 1257.43 668.152 1256.9 668.536C1256.39 668.912 1255.98 669.462 1255.69 670.187C1255.4 670.911 1255.25 671.788 1255.25 672.818C1255.25 673.862 1255.4 674.75 1255.68 675.482C1255.97 676.213 1256.38 676.771 1256.9 677.154C1257.43 677.538 1258.04 677.729 1258.75 677.729C1259.27 677.729 1259.73 677.623 1260.14 677.41C1260.56 677.197 1260.91 676.888 1261.18 676.483C1261.45 676.071 1261.63 675.577 1261.72 675.002H1266C1265.93 676.252 1265.59 677.353 1264.98 678.305C1264.38 679.249 1263.54 679.988 1262.48 680.521C1261.41 681.053 1260.15 681.32 1258.69 681.32ZM1271.86 687.136C1271.28 687.136 1270.75 687.09 1270.24 686.998C1269.74 686.913 1269.33 686.803 1269.01 686.668L1270.03 683.28C1270.56 683.443 1271.04 683.532 1271.47 683.546C1271.9 683.56 1272.27 683.461 1272.58 683.248C1272.9 683.035 1273.16 682.673 1273.36 682.161L1273.63 681.469L1267.76 664.636H1272.53L1275.92 676.653H1276.09L1279.51 664.636H1284.31L1277.95 682.768C1277.65 683.649 1277.23 684.416 1276.71 685.07C1276.19 685.73 1275.53 686.238 1274.74 686.593C1273.94 686.955 1272.98 687.136 1271.86 687.136ZM1293.65 681.32C1291.98 681.32 1290.53 680.964 1289.33 680.254C1288.13 679.537 1287.2 678.543 1286.56 677.271C1285.92 676 1285.6 674.537 1285.6 672.882C1285.6 671.206 1285.92 669.736 1286.57 668.472C1287.22 667.2 1288.15 666.21 1289.35 665.499C1290.55 664.782 1291.98 664.423 1293.63 664.423C1295.06 664.423 1296.31 664.683 1297.38 665.201C1298.45 665.719 1299.3 666.447 1299.93 667.385C1300.55 668.322 1300.9 669.423 1300.96 670.688H1296.68C1296.56 669.871 1296.24 669.214 1295.72 668.717C1295.21 668.212 1294.54 667.96 1293.71 667.96C1293 667.96 1292.39 668.152 1291.86 668.536C1291.34 668.912 1290.94 669.462 1290.65 670.187C1290.36 670.911 1290.21 671.788 1290.21 672.818C1290.21 673.862 1290.35 674.75 1290.64 675.482C1290.93 676.213 1291.34 676.771 1291.86 677.154C1292.39 677.538 1293 677.729 1293.71 677.729C1294.22 677.729 1294.69 677.623 1295.1 677.41C1295.52 677.197 1295.86 676.888 1296.13 676.483C1296.41 676.071 1296.59 675.577 1296.68 675.002H1300.96C1300.89 676.252 1300.55 677.353 1299.94 678.305C1299.33 679.249 1298.5 679.988 1297.43 680.521C1296.37 681.053 1295.11 681.32 1293.65 681.32ZM1308.55 659.182V681H1304.02V659.182H1308.55ZM1319.8 681.32C1318.11 681.32 1316.67 680.979 1315.45 680.297C1314.24 679.608 1313.31 678.635 1312.66 677.378C1312.01 676.114 1311.68 674.619 1311.68 672.893C1311.68 671.21 1312.01 669.732 1312.66 668.461C1313.31 667.19 1314.23 666.199 1315.42 665.489C1316.61 664.778 1318.01 664.423 1319.62 664.423C1320.7 664.423 1321.7 664.597 1322.63 664.945C1323.57 665.286 1324.39 665.801 1325.08 666.49C1325.78 667.179 1326.33 668.045 1326.72 669.089C1327.11 670.126 1327.31 671.341 1327.31 672.733V673.979H1313.49V671.167H1323.04C1323.04 670.513 1322.89 669.935 1322.61 669.43C1322.33 668.926 1321.93 668.532 1321.43 668.248C1320.93 667.957 1320.35 667.811 1319.69 667.811C1319 667.811 1318.39 667.971 1317.86 668.29C1317.33 668.603 1316.92 669.026 1316.62 669.558C1316.32 670.084 1316.17 670.67 1316.16 671.316V673.99C1316.16 674.8 1316.31 675.499 1316.61 676.089C1316.92 676.678 1317.35 677.133 1317.9 677.452C1318.46 677.772 1319.11 677.932 1319.87 677.932C1320.38 677.932 1320.84 677.861 1321.26 677.719C1321.68 677.577 1322.03 677.364 1322.33 677.08C1322.63 676.795 1322.86 676.447 1323.02 676.036L1327.21 676.312C1327 677.321 1326.56 678.202 1325.9 678.955C1325.25 679.7 1324.4 680.283 1323.37 680.702C1322.34 681.114 1321.15 681.32 1319.8 681.32ZM1336.45 681.266C1335.21 681.266 1334.08 680.947 1333.07 680.308C1332.07 679.661 1331.28 678.713 1330.69 677.463C1330.1 676.206 1329.81 674.665 1329.81 672.839C1329.81 670.964 1330.11 669.406 1330.72 668.163C1331.32 666.913 1332.12 665.979 1333.13 665.361C1334.13 664.736 1335.24 664.423 1336.44 664.423C1337.36 664.423 1338.12 664.58 1338.73 664.892C1339.35 665.197 1339.84 665.581 1340.22 666.043C1340.6 666.497 1340.9 666.945 1341.09 667.385H1341.23V659.182H1345.76V681H1341.29V678.379H1341.09C1340.88 678.834 1340.58 679.285 1340.19 679.732C1339.81 680.173 1339.31 680.538 1338.69 680.83C1338.08 681.121 1337.33 681.266 1336.45 681.266ZM1337.89 677.655C1338.62 677.655 1339.24 677.456 1339.74 677.058C1340.25 676.653 1340.64 676.089 1340.91 675.364C1341.19 674.64 1341.33 673.791 1341.33 672.818C1341.33 671.845 1341.19 671 1340.92 670.283C1340.65 669.565 1340.26 669.011 1339.75 668.621C1339.24 668.23 1338.62 668.035 1337.89 668.035C1337.14 668.035 1336.51 668.237 1336 668.642C1335.49 669.047 1335.1 669.608 1334.84 670.325C1334.58 671.043 1334.45 671.874 1334.45 672.818C1334.45 673.77 1334.58 674.612 1334.84 675.343C1335.11 676.067 1335.5 676.636 1336 677.048C1336.51 677.452 1337.14 677.655 1337.89 677.655Z" fill="black"/>
<path d="M1145.77 787V783.676L1153.53 776.485C1154.2 775.846 1154.75 775.271 1155.2 774.759C1155.65 774.248 1156 773.747 1156.23 773.257C1156.46 772.76 1156.58 772.224 1156.58 771.648C1156.58 771.009 1156.44 770.459 1156.14 769.997C1155.85 769.528 1155.46 769.17 1154.95 768.921C1154.45 768.665 1153.88 768.538 1153.24 768.538C1152.57 768.538 1151.99 768.673 1151.49 768.942C1150.99 769.212 1150.61 769.599 1150.34 770.104C1150.07 770.608 1149.93 771.208 1149.93 771.904H1145.56C1145.56 770.477 1145.88 769.237 1146.52 768.186C1147.17 767.135 1148.08 766.322 1149.24 765.746C1150.41 765.171 1151.75 764.884 1153.27 764.884C1154.83 764.884 1156.19 765.161 1157.35 765.714C1158.51 766.261 1159.42 767.021 1160.07 767.994C1160.71 768.967 1161.03 770.082 1161.03 771.339C1161.03 772.163 1160.87 772.977 1160.54 773.779C1160.23 774.582 1159.65 775.473 1158.83 776.453C1158.01 777.426 1156.84 778.594 1155.35 779.958L1152.16 783.08V783.229H1161.32V787H1145.77ZM1176.76 782.909V781.759C1176.76 780.885 1176.94 780.082 1177.31 779.351C1177.69 778.612 1178.23 778.023 1178.94 777.582C1179.66 777.135 1180.53 776.911 1181.56 776.911C1182.61 776.911 1183.48 777.131 1184.19 777.572C1184.91 778.012 1185.45 778.602 1185.81 779.34C1186.18 780.072 1186.37 780.878 1186.37 781.759V782.909C1186.37 783.783 1186.18 784.589 1185.81 785.327C1185.44 786.059 1184.9 786.645 1184.18 787.085C1183.47 787.533 1182.59 787.756 1181.56 787.756C1180.52 787.756 1179.64 787.533 1178.93 787.085C1178.22 786.645 1177.68 786.059 1177.31 785.327C1176.94 784.589 1176.76 783.783 1176.76 782.909ZM1179.86 781.759V782.909C1179.86 783.413 1179.98 783.889 1180.22 784.337C1180.47 784.784 1180.92 785.008 1181.56 785.008C1182.21 785.008 1182.65 784.788 1182.88 784.347C1183.12 783.907 1183.25 783.428 1183.25 782.909V781.759C1183.25 781.24 1183.13 780.757 1182.9 780.31C1182.68 779.862 1182.23 779.638 1181.56 779.638C1180.92 779.638 1180.48 779.862 1180.23 780.31C1179.98 780.757 1179.86 781.24 1179.86 781.759ZM1165.56 770.423V769.273C1165.56 768.392 1165.75 767.586 1166.13 766.854C1166.5 766.116 1167.05 765.526 1167.76 765.086C1168.47 764.646 1169.34 764.425 1170.35 764.425C1171.41 764.425 1172.29 764.646 1173 765.086C1173.71 765.526 1174.25 766.116 1174.62 766.854C1174.99 767.586 1175.17 768.392 1175.17 769.273V770.423C1175.17 771.304 1174.98 772.11 1174.61 772.842C1174.24 773.573 1173.69 774.159 1172.98 774.599C1172.27 775.033 1171.39 775.249 1170.35 775.249C1169.32 775.249 1168.44 775.029 1167.72 774.589C1167.01 774.141 1166.47 773.555 1166.1 772.831C1165.74 772.099 1165.56 771.297 1165.56 770.423ZM1168.68 769.273V770.423C1168.68 770.942 1168.8 771.421 1169.04 771.862C1169.29 772.302 1169.73 772.522 1170.35 772.522C1171.01 772.522 1171.45 772.302 1171.69 771.862C1171.93 771.421 1172.05 770.942 1172.05 770.423V769.273C1172.05 768.754 1171.93 768.271 1171.71 767.824C1171.48 767.376 1171.03 767.153 1170.35 767.153C1169.72 767.153 1169.29 767.38 1169.04 767.835C1168.8 768.289 1168.68 768.768 1168.68 769.273ZM1166.97 787L1181.97 765.182H1184.76L1169.76 787H1166.97ZM1205.7 787H1197.97V765.182H1205.77C1207.96 765.182 1209.85 765.619 1211.43 766.492C1213.02 767.359 1214.24 768.605 1215.09 770.232C1215.95 771.858 1216.38 773.804 1216.38 776.07C1216.38 778.342 1215.95 780.295 1215.09 781.929C1214.24 783.562 1213.01 784.816 1211.41 785.69C1209.82 786.563 1207.92 787 1205.7 787ZM1202.58 783.048H1205.51C1206.87 783.048 1208.02 782.806 1208.95 782.323C1209.89 781.833 1210.59 781.077 1211.06 780.054C1211.54 779.024 1211.77 777.696 1211.77 776.07C1211.77 774.457 1211.54 773.14 1211.06 772.117C1210.59 771.094 1209.89 770.342 1208.96 769.859C1208.03 769.376 1206.88 769.134 1205.52 769.134H1202.58V783.048ZM1219.86 787V770.636H1224.4V787H1219.86ZM1222.14 768.527C1221.46 768.527 1220.88 768.303 1220.4 767.856C1219.93 767.401 1219.69 766.858 1219.69 766.226C1219.69 765.601 1219.93 765.065 1220.4 764.617C1220.88 764.163 1221.46 763.935 1222.14 763.935C1222.81 763.935 1223.39 764.163 1223.86 764.617C1224.35 765.065 1224.59 765.601 1224.59 766.226C1224.59 766.858 1224.35 767.401 1223.86 767.856C1223.39 768.303 1222.81 768.527 1222.14 768.527ZM1241.8 775.303L1237.64 775.558C1237.57 775.203 1237.42 774.884 1237.18 774.599C1236.95 774.308 1236.64 774.077 1236.26 773.907C1235.88 773.729 1235.43 773.641 1234.9 773.641C1234.2 773.641 1233.61 773.79 1233.13 774.088C1232.64 774.379 1232.4 774.77 1232.4 775.26C1232.4 775.651 1232.56 775.981 1232.87 776.251C1233.18 776.521 1233.72 776.737 1234.48 776.901L1237.44 777.497C1239.03 777.824 1240.22 778.349 1241 779.074C1241.78 779.798 1242.17 780.75 1242.17 781.929C1242.17 783.001 1241.85 783.942 1241.22 784.752C1240.6 785.562 1239.74 786.194 1238.64 786.648C1237.56 787.096 1236.3 787.32 1234.88 787.32C1232.72 787.32 1230.99 786.869 1229.71 785.967C1228.43 785.058 1227.68 783.822 1227.46 782.259L1231.92 782.025C1232.06 782.685 1232.38 783.19 1232.9 783.538C1233.42 783.879 1234.08 784.049 1234.89 784.049C1235.69 784.049 1236.33 783.896 1236.81 783.591C1237.3 783.278 1237.55 782.877 1237.56 782.387C1237.55 781.975 1237.38 781.638 1237.04 781.375C1236.69 781.105 1236.17 780.899 1235.46 780.757L1232.62 780.192C1231.03 779.873 1229.84 779.319 1229.06 778.531C1228.28 777.742 1227.89 776.737 1227.89 775.516C1227.89 774.464 1228.18 773.559 1228.75 772.799C1229.32 772.039 1230.13 771.453 1231.17 771.041C1232.21 770.629 1233.43 770.423 1234.83 770.423C1236.9 770.423 1238.52 770.86 1239.71 771.734C1240.9 772.607 1241.6 773.797 1241.8 775.303ZM1245.18 793.136V770.636H1249.65V773.385H1249.85C1250.05 772.945 1250.34 772.497 1250.72 772.043C1251.1 771.581 1251.6 771.197 1252.21 770.892C1252.83 770.58 1253.59 770.423 1254.51 770.423C1255.7 770.423 1256.8 770.736 1257.81 771.361C1258.82 771.979 1259.63 772.913 1260.23 774.163C1260.83 775.406 1261.14 776.964 1261.14 778.839C1261.14 780.665 1260.84 782.206 1260.25 783.463C1259.67 784.713 1258.87 785.661 1257.87 786.308C1256.86 786.947 1255.74 787.266 1254.5 787.266C1253.62 787.266 1252.87 787.121 1252.25 786.83C1251.64 786.538 1251.14 786.173 1250.75 785.732C1250.36 785.285 1250.06 784.834 1249.85 784.379H1249.72V793.136H1245.18ZM1249.62 778.818C1249.62 779.791 1249.76 780.64 1250.03 781.364C1250.3 782.089 1250.69 782.653 1251.2 783.058C1251.71 783.456 1252.33 783.655 1253.06 783.655C1253.8 783.655 1254.43 783.452 1254.94 783.048C1255.45 782.636 1255.83 782.067 1256.1 781.343C1256.37 780.612 1256.5 779.77 1256.5 778.818C1256.5 777.874 1256.37 777.043 1256.11 776.325C1255.85 775.608 1255.46 775.047 1254.95 774.642C1254.44 774.237 1253.81 774.035 1253.06 774.035C1252.32 774.035 1251.7 774.23 1251.19 774.621C1250.68 775.011 1250.3 775.565 1250.03 776.283C1249.76 777 1249.62 777.845 1249.62 778.818ZM1271.71 787.32C1270.05 787.32 1268.62 786.968 1267.41 786.265C1266.21 785.555 1265.29 784.567 1264.63 783.303C1263.98 782.032 1263.65 780.558 1263.65 778.882C1263.65 777.192 1263.98 775.714 1264.63 774.45C1265.29 773.179 1266.21 772.192 1267.41 771.489C1268.62 770.778 1270.05 770.423 1271.71 770.423C1273.36 770.423 1274.79 770.778 1275.99 771.489C1277.2 772.192 1278.13 773.179 1278.78 774.45C1279.43 775.714 1279.76 777.192 1279.76 778.882C1279.76 780.558 1279.43 782.032 1278.78 783.303C1278.13 784.567 1277.2 785.555 1275.99 786.265C1274.79 786.968 1273.36 787.32 1271.71 787.32ZM1271.73 783.804C1272.48 783.804 1273.11 783.591 1273.61 783.165C1274.12 782.732 1274.5 782.142 1274.75 781.396C1275.02 780.651 1275.15 779.802 1275.15 778.85C1275.15 777.898 1275.02 777.05 1274.75 776.304C1274.5 775.558 1274.12 774.969 1273.61 774.536C1273.11 774.102 1272.48 773.886 1271.73 773.886C1270.97 773.886 1270.33 774.102 1269.81 774.536C1269.3 774.969 1268.91 775.558 1268.65 776.304C1268.39 777.05 1268.26 777.898 1268.26 778.85C1268.26 779.802 1268.39 780.651 1268.65 781.396C1268.91 782.142 1269.3 782.732 1269.81 783.165C1270.33 783.591 1270.97 783.804 1271.73 783.804ZM1296.48 775.303L1292.32 775.558C1292.25 775.203 1292.1 774.884 1291.86 774.599C1291.63 774.308 1291.32 774.077 1290.94 773.907C1290.56 773.729 1290.11 773.641 1289.58 773.641C1288.88 773.641 1288.29 773.79 1287.8 774.088C1287.32 774.379 1287.08 774.77 1287.08 775.26C1287.08 775.651 1287.24 775.981 1287.55 776.251C1287.86 776.521 1288.4 776.737 1289.16 776.901L1292.12 777.497C1293.71 777.824 1294.9 778.349 1295.68 779.074C1296.46 779.798 1296.85 780.75 1296.85 781.929C1296.85 783.001 1296.53 783.942 1295.9 784.752C1295.28 785.562 1294.42 786.194 1293.32 786.648C1292.24 787.096 1290.98 787.32 1289.56 787.32C1287.4 787.32 1285.67 786.869 1284.38 785.967C1283.11 785.058 1282.36 783.822 1282.14 782.259L1286.6 782.025C1286.73 782.685 1287.06 783.19 1287.58 783.538C1288.1 783.879 1288.76 784.049 1289.57 784.049C1290.37 784.049 1291.01 783.896 1291.49 783.591C1291.98 783.278 1292.23 782.877 1292.24 782.387C1292.23 781.975 1292.05 781.638 1291.71 781.375C1291.37 781.105 1290.85 780.899 1290.14 780.757L1287.3 780.192C1285.71 779.873 1284.52 779.319 1283.73 778.531C1282.96 777.742 1282.57 776.737 1282.57 775.516C1282.57 774.464 1282.86 773.559 1283.43 772.799C1284 772.039 1284.81 771.453 1285.84 771.041C1286.89 770.629 1288.11 770.423 1289.51 770.423C1291.58 770.423 1293.2 770.86 1294.39 771.734C1295.58 772.607 1296.28 773.797 1296.48 775.303ZM1307.31 787.32C1305.63 787.32 1304.18 786.979 1302.97 786.297C1301.76 785.608 1300.83 784.635 1300.18 783.378C1299.52 782.114 1299.2 780.619 1299.2 778.893C1299.2 777.21 1299.52 775.732 1300.18 774.461C1300.83 773.19 1301.75 772.199 1302.94 771.489C1304.13 770.778 1305.53 770.423 1307.13 770.423C1308.21 770.423 1309.22 770.597 1310.15 770.945C1311.09 771.286 1311.9 771.801 1312.6 772.49C1313.3 773.179 1313.85 774.045 1314.24 775.089C1314.63 776.126 1314.82 777.341 1314.82 778.733V779.979H1301.01V777.167H1310.55C1310.55 776.513 1310.41 775.935 1310.13 775.43C1309.84 774.926 1309.45 774.532 1308.94 774.248C1308.45 773.957 1307.87 773.811 1307.21 773.811C1306.52 773.811 1305.91 773.971 1305.37 774.29C1304.85 774.603 1304.44 775.026 1304.14 775.558C1303.84 776.084 1303.69 776.67 1303.68 777.316V779.99C1303.68 780.8 1303.83 781.499 1304.13 782.089C1304.43 782.678 1304.86 783.133 1305.42 783.452C1305.97 783.772 1306.63 783.932 1307.39 783.932C1307.89 783.932 1308.35 783.861 1308.77 783.719C1309.19 783.577 1309.55 783.364 1309.85 783.08C1310.15 782.795 1310.37 782.447 1310.53 782.036L1314.73 782.312C1314.52 783.321 1314.08 784.202 1313.42 784.955C1312.76 785.7 1311.92 786.283 1310.88 786.702C1309.85 787.114 1308.66 787.32 1307.31 787.32ZM1323.97 787.266C1322.72 787.266 1321.6 786.947 1320.59 786.308C1319.59 785.661 1318.79 784.713 1318.2 783.463C1317.62 782.206 1317.33 780.665 1317.33 778.839C1317.33 776.964 1317.63 775.406 1318.23 774.163C1318.84 772.913 1319.64 771.979 1320.64 771.361C1321.65 770.736 1322.75 770.423 1323.96 770.423C1324.87 770.423 1325.63 770.58 1326.25 770.892C1326.86 771.197 1327.36 771.581 1327.74 772.043C1328.12 772.497 1328.41 772.945 1328.61 773.385H1328.75V765.182H1333.28V787H1328.8V784.379H1328.61C1328.4 784.834 1328.1 785.285 1327.71 785.732C1327.32 786.173 1326.82 786.538 1326.2 786.83C1325.59 787.121 1324.85 787.266 1323.97 787.266ZM1325.4 783.655C1326.14 783.655 1326.75 783.456 1327.26 783.058C1327.77 782.653 1328.16 782.089 1328.43 781.364C1328.71 780.64 1328.85 779.791 1328.85 778.818C1328.85 777.845 1328.71 777 1328.44 776.283C1328.17 775.565 1327.78 775.011 1327.27 774.621C1326.76 774.23 1326.14 774.035 1325.4 774.035C1324.66 774.035 1324.03 774.237 1323.52 774.642C1323.01 775.047 1322.62 775.608 1322.36 776.325C1322.09 777.043 1321.96 777.874 1321.96 778.818C1321.96 779.77 1322.09 780.612 1322.36 781.343C1322.63 782.067 1323.01 782.636 1323.52 783.048C1324.03 783.452 1324.66 783.655 1325.4 783.655Z" fill="black"/>
<path d="M278.768 165V161.676L286.535 154.485C287.195 153.846 287.749 153.271 288.197 152.759C288.651 152.248 288.996 151.747 289.23 151.257C289.464 150.76 289.582 150.224 289.582 149.648C289.582 149.009 289.436 148.459 289.145 147.997C288.854 147.528 288.456 147.17 287.952 146.921C287.447 146.665 286.876 146.538 286.237 146.538C285.569 146.538 284.987 146.673 284.489 146.942C283.992 147.212 283.609 147.599 283.339 148.104C283.069 148.608 282.934 149.208 282.934 149.904H278.555C278.555 148.477 278.879 147.237 279.525 146.186C280.171 145.135 281.077 144.322 282.241 143.746C283.406 143.171 284.749 142.884 286.268 142.884C287.831 142.884 289.191 143.161 290.349 143.714C291.513 144.261 292.419 145.021 293.065 145.994C293.712 146.967 294.035 148.082 294.035 149.339C294.035 150.163 293.871 150.977 293.545 151.779C293.225 152.582 292.653 153.473 291.83 154.453C291.006 155.426 289.844 156.594 288.346 157.958L285.161 161.08V161.229H294.322V165H278.768ZM306.37 165.479C304.537 165.472 302.961 165.021 301.64 164.126C300.326 163.232 299.314 161.935 298.603 160.238C297.9 158.54 297.552 156.499 297.559 154.112C297.559 151.733 297.911 149.705 298.614 148.029C299.324 146.353 300.336 145.078 301.65 144.205C302.971 143.324 304.544 142.884 306.37 142.884C308.195 142.884 309.765 143.324 311.078 144.205C312.399 145.085 313.415 146.364 314.125 148.04C314.836 149.709 315.187 151.733 315.18 154.112C315.18 156.506 314.825 158.551 314.115 160.249C313.412 161.946 312.403 163.242 311.089 164.137C309.775 165.032 308.202 165.479 306.37 165.479ZM306.37 161.655C307.62 161.655 308.618 161.026 309.363 159.769C310.109 158.512 310.478 156.626 310.471 154.112C310.471 152.457 310.301 151.08 309.96 149.979C309.626 148.878 309.15 148.05 308.532 147.496C307.921 146.942 307.201 146.665 306.37 146.665C305.127 146.665 304.132 147.287 303.387 148.53C302.641 149.773 302.265 151.634 302.257 154.112C302.257 155.788 302.424 157.188 302.758 158.31C303.099 159.425 303.578 160.263 304.196 160.824C304.814 161.378 305.539 161.655 306.37 161.655ZM330.562 160.909V159.759C330.562 158.885 330.746 158.082 331.116 157.351C331.492 156.612 332.035 156.023 332.746 155.582C333.463 155.135 334.337 154.911 335.366 154.911C336.41 154.911 337.288 155.131 337.998 155.572C338.715 156.012 339.255 156.602 339.617 157.34C339.986 158.072 340.171 158.878 340.171 159.759V160.909C340.171 161.783 339.986 162.589 339.617 163.327C339.248 164.059 338.704 164.645 337.987 165.085C337.27 165.533 336.396 165.756 335.366 165.756C334.322 165.756 333.445 165.533 332.735 165.085C332.025 164.645 331.485 164.059 331.116 163.327C330.746 162.589 330.562 161.783 330.562 160.909ZM333.662 159.759V160.909C333.662 161.413 333.783 161.889 334.024 162.337C334.273 162.784 334.72 163.008 335.366 163.008C336.013 163.008 336.453 162.788 336.687 162.347C336.929 161.907 337.05 161.428 337.05 160.909V159.759C337.05 159.24 336.936 158.757 336.709 158.31C336.481 157.862 336.034 157.638 335.366 157.638C334.727 157.638 334.283 157.862 334.035 158.31C333.786 158.757 333.662 159.24 333.662 159.759ZM319.365 148.423V147.273C319.365 146.392 319.553 145.586 319.93 144.854C320.306 144.116 320.849 143.526 321.56 143.086C322.277 142.646 323.143 142.425 324.159 142.425C325.21 142.425 326.091 142.646 326.801 143.086C327.511 143.526 328.051 144.116 328.42 144.854C328.79 145.586 328.974 146.392 328.974 147.273V148.423C328.974 149.304 328.786 150.11 328.41 150.842C328.04 151.573 327.497 152.159 326.78 152.599C326.07 153.033 325.196 153.249 324.159 153.249C323.122 153.249 322.245 153.029 321.528 152.589C320.817 152.141 320.278 151.555 319.908 150.831C319.546 150.099 319.365 149.297 319.365 148.423ZM322.486 147.273V148.423C322.486 148.942 322.607 149.421 322.849 149.862C323.097 150.302 323.534 150.522 324.159 150.522C324.812 150.522 325.256 150.302 325.491 149.862C325.732 149.421 325.853 148.942 325.853 148.423V147.273C325.853 146.754 325.739 146.271 325.512 145.824C325.285 145.376 324.834 145.153 324.159 145.153C323.527 145.153 323.09 145.38 322.849 145.835C322.607 146.289 322.486 146.768 322.486 147.273ZM320.771 165L335.771 143.182H338.562L323.562 165H320.771ZM351.527 150V147.699C351.527 147.045 351.655 146.378 351.91 145.696C352.166 145.014 352.503 144.371 352.922 143.768C353.341 143.164 353.796 142.66 354.286 142.255L356.289 143.438C355.891 144.062 355.564 144.716 355.309 145.398C355.06 146.08 354.936 146.839 354.936 147.678V150H351.527ZM377.437 143.182V165H373.452L363.96 151.268H363.8V165H359.187V143.182H363.236L372.653 156.903H372.845V143.182H377.437ZM388.77 165.32C387.087 165.32 385.638 164.979 384.423 164.297C383.216 163.608 382.286 162.635 381.632 161.378C380.979 160.114 380.652 158.619 380.652 156.893C380.652 155.21 380.979 153.732 381.632 152.461C382.286 151.19 383.205 150.199 384.391 149.489C385.585 148.778 386.984 148.423 388.589 148.423C389.668 148.423 390.673 148.597 391.604 148.945C392.541 149.286 393.358 149.801 394.054 150.49C394.757 151.179 395.304 152.045 395.695 153.089C396.085 154.126 396.281 155.341 396.281 156.733V157.979H382.463V155.167H392.009C392.009 154.513 391.867 153.935 391.583 153.43C391.298 152.926 390.904 152.532 390.4 152.248C389.903 151.957 389.324 151.811 388.663 151.811C387.975 151.811 387.364 151.971 386.831 152.29C386.306 152.603 385.894 153.026 385.595 153.558C385.297 154.084 385.144 154.67 385.137 155.316V157.99C385.137 158.8 385.286 159.499 385.585 160.089C385.89 160.678 386.32 161.133 386.874 161.452C387.428 161.772 388.085 161.932 388.845 161.932C389.349 161.932 389.811 161.861 390.23 161.719C390.649 161.577 391.007 161.364 391.306 161.08C391.604 160.795 391.831 160.447 391.987 160.036L396.185 160.312C395.972 161.321 395.535 162.202 394.874 162.955C394.221 163.7 393.376 164.283 392.339 164.702C391.309 165.114 390.119 165.32 388.77 165.32ZM402.503 165L398.05 148.636H402.642L405.177 159.631H405.326L407.968 148.636H412.475L415.159 159.567H415.298L417.791 148.636H422.372L417.929 165H413.125L410.312 154.709H410.11L407.297 165H402.503ZM430.035 143.182V145.483C430.035 146.136 429.907 146.804 429.652 147.486C429.403 148.161 429.069 148.8 428.65 149.403C428.231 150 427.773 150.508 427.276 150.927L425.273 149.744C425.628 149.183 425.941 148.562 426.21 147.88C426.487 147.198 426.626 146.406 426.626 145.504V143.182H430.035Z" fill="black"/>
</svg>
